<svg width="20" height="21" viewBox="0 0 20 21" fill="none" xmlns="http://www.w3.org/2000/svg">
<g clip-path="url(#clip0)">
<path d="M2.92969 20.908H9.45312V13.7986H7.10938V11.4549H9.45312V8.52518C9.45312 6.90973 10.7674 5.59549 12.3828 5.59549H15.3125V7.93924H12.9688C12.3225 7.93924 11.7969 8.4649 11.7969 9.11111V11.4549H15.2068L14.8161 13.7986H11.7969V20.908H17.0703C18.6858 20.908 20 19.5938 20 17.9783V3.83768C20 2.22223 18.6858 0.90799 17.0703 0.90799H2.92969C1.31424 0.90799 0 2.22223 0 3.83768V17.9783C0 19.5938 1.31424 20.908 2.92969 20.908ZM1.17188 3.83768C1.17188 2.86844 1.96045 2.07986 2.92969 2.07986H17.0703C18.0396 2.07986 18.8281 2.86844 18.8281 3.83768V17.9783C18.8281 18.9475 18.0396 19.7361 17.0703 19.7361H12.9688V14.9705H15.8089L16.5901 10.283H12.9688V9.11111H16.4844V4.42361H12.3828C10.1212 4.42361 8.28125 6.26352 8.28125 8.52518V10.283H5.9375V14.9705H8.28125V19.7361H2.92969C1.96045 19.7361 1.17188 18.9475 1.17188 17.9783V3.83768Z" fill="#D47BFE"/>
</g>
<defs>
<clipPath id="clip0">
<rect width="20" height="20" fill="white" transform="translate(0 0.90799)"/>
</clipPath>
</defs>
</svg>
