<svg width="21" height="20" viewBox="0 0 21 20" fill="none" xmlns="http://www.w3.org/2000/svg">
<g clip-path="url(#clip0)">
<path d="M15.0862 0H5.91381C2.92858 0 0.5 2.42858 0.5 5.41381V14.5863C0.5 17.5714 2.92858 20 5.91381 20H15.0863C18.0714 20 20.5 17.5714 20.5 14.5863V5.41381C20.5 2.42858 18.0714 0 15.0862 0V0ZM19.3275 14.5863C19.3275 16.9249 17.4249 18.8275 15.0862 18.8275H5.91381C3.5751 18.8275 1.67248 16.9249 1.67248 14.5863V5.41381C1.67248 3.0751 3.5751 1.17248 5.91381 1.17248H15.0863C17.4249 1.17248 19.3275 3.0751 19.3275 5.41381V14.5863Z" fill="white"/>
<path d="M10.5 4.53137C7.48452 4.53137 5.03137 6.98452 5.03137 9.99996C5.03137 13.0154 7.48452 15.4685 10.5 15.4685C13.5154 15.4685 15.9685 13.0154 15.9685 9.99996C15.9685 6.98452 13.5154 4.53137 10.5 4.53137ZM10.5 14.2961C8.13119 14.2961 6.20386 12.3689 6.20386 9.99996C6.20386 7.63119 8.13119 5.70386 10.5 5.70386C12.8689 5.70386 14.7961 7.63119 14.7961 9.99996C14.7961 12.3689 12.8689 14.2961 10.5 14.2961Z" fill="white"/>
<path d="M16.0994 2.58923C15.2083 2.58923 14.4835 3.31418 14.4835 4.20514C14.4835 5.09625 15.2083 5.82119 16.0994 5.82119C16.9905 5.82119 17.7154 5.09625 17.7154 4.20514C17.7154 3.31402 16.9905 2.58923 16.0994 2.58923ZM16.0994 4.64856C15.8549 4.64856 15.6559 4.44958 15.6559 4.20514C15.6559 3.96054 15.8549 3.76172 16.0994 3.76172C16.344 3.76172 16.5429 3.96054 16.5429 4.20514C16.5429 4.44958 16.344 4.64856 16.0994 4.64856Z" fill="white"/>
</g>
<defs>
<clipPath id="clip0">
<rect width="20" height="20" fill="white" transform="translate(0.5)"/>
</clipPath>
</defs>
</svg>
