<svg width="21" height="21" viewBox="0 0 21 21" fill="none" xmlns="http://www.w3.org/2000/svg">
<g clip-path="url(#clip0)">
<path d="M15.0862 0.90799H5.91381C2.92858 0.90799 0.5 3.33657 0.5 6.3218V15.4943C0.5 18.4794 2.92858 20.908 5.91381 20.908H15.0863C18.0714 20.908 20.5 18.4794 20.5 15.4943V6.3218C20.5 3.33657 18.0714 0.90799 15.0862 0.90799V0.90799ZM19.3275 15.4943C19.3275 17.8329 17.4249 19.7355 15.0862 19.7355H5.91381C3.5751 19.7355 1.67248 17.8329 1.67248 15.4943V6.3218C1.67248 3.98309 3.5751 2.08047 5.91381 2.08047H15.0863C17.4249 2.08047 19.3275 3.98309 19.3275 6.3218V15.4943Z" fill="#D47BFE"/>
<path d="M10.4998 5.43939C7.4844 5.43939 5.03125 7.89254 5.03125 10.908C5.03125 13.9234 7.4844 16.3766 10.4998 16.3766C13.5153 16.3766 15.9684 13.9234 15.9684 10.908C15.9684 7.89254 13.5153 5.43939 10.4998 5.43939ZM10.4998 15.2041C8.13107 15.2041 6.20373 13.2769 6.20373 10.908C6.20373 8.53921 8.13107 6.61188 10.4998 6.61188C12.8688 6.61188 14.7959 8.53921 14.7959 10.908C14.7959 13.2769 12.8688 15.2041 10.4998 15.2041Z" fill="#D47BFE"/>
<path d="M16.0993 3.49725C15.2082 3.49725 14.4834 4.2222 14.4834 5.11316C14.4834 6.00427 15.2082 6.72921 16.0993 6.72921C16.9904 6.72921 17.7154 6.00427 17.7154 5.11316C17.7154 4.22204 16.9904 3.49725 16.0993 3.49725ZM16.0993 5.55658C15.8549 5.55658 15.6559 5.3576 15.6559 5.11316C15.6559 4.86856 15.8549 4.66974 16.0993 4.66974C16.3439 4.66974 16.5429 4.86856 16.5429 5.11316C16.5429 5.3576 16.3439 5.55658 16.0993 5.55658Z" fill="#D47BFE"/>
</g>
<defs>
<clipPath id="clip0">
<rect width="20" height="20" fill="white" transform="translate(0.5 0.90799)"/>
</clipPath>
</defs>
</svg>
