<svg width="20" height="21" viewBox="0 0 20 21" fill="none" xmlns="http://www.w3.org/2000/svg">
<g clip-path="url(#clip0)">
<path d="M20 3.82759C19.2563 4.15384 18.4637 4.37009 17.6375 4.47509C18.4875 3.96759 19.1363 3.17009 19.4412 2.20884C18.6488 2.68134 17.7738 3.01509 16.8412 3.20134C16.0887 2.40009 15.0162 1.90384 13.8462 1.90384C11.5763 1.90384 9.74875 3.74634 9.74875 6.00509C9.74875 6.33009 9.77625 6.64259 9.84375 6.94009C6.435 6.77384 3.41875 5.14009 1.3925 2.65134C1.03875 3.26509 0.83125 3.96759 0.83125 4.72384C0.83125 6.14384 1.5625 7.40259 2.6525 8.13134C1.99375 8.11884 1.3475 7.92759 0.8 7.62634C0.8 7.63884 0.8 7.65509 0.8 7.67134C0.8 9.66384 2.22125 11.3188 4.085 11.7001C3.75125 11.7913 3.3875 11.8351 3.01 11.8351C2.7475 11.8351 2.4825 11.8201 2.23375 11.7651C2.765 13.3888 4.2725 14.5826 6.065 14.6213C4.67 15.7126 2.89875 16.3701 0.98125 16.3701C0.645 16.3701 0.3225 16.3551 0 16.3138C1.81625 17.4851 3.96875 18.1538 6.29 18.1538C13.835 18.1538 17.96 11.9038 17.96 6.48634C17.96 6.30509 17.9538 6.13009 17.945 5.95634C18.7588 5.37884 19.4425 4.65759 20 3.82759Z" fill="#D47BFE"/>
</g>
<defs>
<clipPath id="clip0">
<rect width="20" height="20" fill="white" transform="translate(0 0.0288391)"/>
</clipPath>
</defs>
</svg>
