<svg width="20" height="21" viewBox="0 0 20 21" fill="none" xmlns="http://www.w3.org/2000/svg">
<g clip-path="url(#clip0)">
<path d="M20 3.9196C19.2563 4.24585 18.4637 4.4621 17.6375 4.5671C18.4875 4.0596 19.1363 3.2621 19.4412 2.30085C18.6488 2.77335 17.7738 3.1071 16.8412 3.29335C16.0887 2.4921 15.0162 1.99585 13.8462 1.99585C11.5763 1.99585 9.74875 3.83835 9.74875 6.0971C9.74875 6.4221 9.77625 6.7346 9.84375 7.0321C6.435 6.86585 3.41875 5.2321 1.3925 2.74335C1.03875 3.3571 0.83125 4.0596 0.83125 4.81585C0.83125 6.23585 1.5625 7.4946 2.6525 8.22335C1.99375 8.21085 1.3475 8.0196 0.8 7.71835C0.8 7.73085 0.8 7.7471 0.8 7.76335C0.8 9.75585 2.22125 11.4108 4.085 11.7921C3.75125 11.8833 3.3875 11.9271 3.01 11.9271C2.7475 11.9271 2.4825 11.9121 2.23375 11.8571C2.765 13.4808 4.2725 14.6746 6.065 14.7133C4.67 15.8046 2.89875 16.4621 0.98125 16.4621C0.645 16.4621 0.3225 16.4471 0 16.4058C1.81625 17.5771 3.96875 18.2458 6.29 18.2458C13.835 18.2458 17.96 11.9958 17.96 6.57835C17.96 6.3971 17.9538 6.2221 17.945 6.04835C18.7588 5.47085 19.4425 4.7496 20 3.9196Z" fill="white"/>
</g>
<defs>
<clipPath id="clip0">
<rect width="20" height="20" fill="white" transform="translate(0 0.12085)"/>
</clipPath>
</defs>
</svg>
