<svg width="30" height="31" viewBox="0 0 30 31" fill="none" xmlns="http://www.w3.org/2000/svg">
<g clip-path="url(#clip0)">
<path d="M23.0767 25.6739C23.0767 26.3111 23.3027 26.8548 23.7531 27.3052C24.2034 27.756 24.7476 27.9816 25.3851 27.9816C26.0217 27.9816 26.5658 27.756 27.0162 27.3052C27.467 26.8548 27.6926 26.3111 27.6926 25.6739C27.6926 25.0366 27.4673 24.4929 27.0162 24.0421C26.5658 23.5917 26.0217 23.3662 25.3851 23.3662C24.7476 23.3662 24.2034 23.5917 23.7531 24.0421C23.3027 24.4929 23.0767 25.0366 23.0767 25.6739Z" fill="white"/>
<path d="M29.6574 5.2467C29.4289 5.01829 29.1586 4.90406 28.8461 4.90406H7.19355C7.18136 4.82001 7.15433 4.66688 7.11228 4.44454C7.07022 4.22208 7.03726 4.04489 7.0132 3.91253C6.98902 3.78075 6.94418 3.62137 6.87794 3.43508C6.81183 3.24867 6.73371 3.10129 6.6436 2.99337C6.55362 2.88489 6.43345 2.792 6.28316 2.71363C6.133 2.63577 5.96162 2.59662 5.7694 2.59662H1.15407C0.841367 2.59662 0.570973 2.71104 0.342634 2.93913C0.114232 3.16747 0 3.43805 0 3.7505C0 4.06295 0.114232 4.33341 0.342634 4.56174C0.571162 4.79015 0.841619 4.90425 1.15407 4.90425H4.83155L8.02248 19.7422C7.99861 19.7902 7.87541 20.0183 7.65294 20.4272C7.4306 20.8361 7.25335 21.1935 7.12125 21.4999C6.98908 21.8068 6.92297 22.044 6.92297 22.2122C6.92297 22.5246 7.0372 22.7951 7.26547 23.0239C7.49413 23.2516 7.76446 23.3662 8.07697 23.3662H9.23079H25.3847H26.5378C26.8502 23.3662 27.1208 23.2516 27.349 23.0239C27.5776 22.7952 27.6917 22.5247 27.6917 22.2122C27.6917 21.8997 27.5776 21.6291 27.349 21.4009C27.1208 21.1727 26.8503 21.0582 26.5378 21.0582H9.95167C10.2403 20.4811 10.3845 20.0969 10.3845 19.9046C10.3845 19.7841 10.3695 19.6518 10.3393 19.5078C10.3092 19.3639 10.2732 19.2044 10.2312 19.0299C10.189 18.8561 10.1621 18.7269 10.1501 18.6426L28.9727 16.4432C29.2729 16.4068 29.5195 16.2781 29.7117 16.0554C29.9041 15.8333 30 15.5779 30 15.2893V6.05832C29.9999 5.74587 29.886 5.47541 29.6574 5.2467Z" fill="white"/>
<path d="M6.92291 25.6739C6.92291 26.3111 7.14816 26.8548 7.59896 27.3052C8.04989 27.756 8.59352 27.9816 9.23074 27.9816C9.86757 27.9816 10.4115 27.756 10.8621 27.3052C11.3129 26.8548 11.5384 26.3111 11.5384 25.6739C11.5384 25.0366 11.3131 24.4929 10.8621 24.0421C10.4115 23.5917 9.86757 23.3662 9.23074 23.3662C8.59359 23.3662 8.04964 23.5917 7.59896 24.0421C7.14841 24.4929 6.92291 25.0366 6.92291 25.6739Z" fill="white"/>
<ellipse cx="25.9138" cy="4.5115" rx="4.08622" ry="4.22243" fill="#FF0000"/>
<path d="M26.4672 3.4115V5.5115H25.7592V3.9455H25.3992V3.4115H26.4672Z" fill="white"/>
</g>
<defs>
<clipPath id="clip0">
<rect width="30" height="30" fill="white" transform="translate(0 0.289062)"/>
</clipPath>
</defs>
</svg>
