<svg width="30" height="31" viewBox="0 0 30 31" fill="none" xmlns="http://www.w3.org/2000/svg">
<g clip-path="url(#clip0)">
<path d="M15 0.710938C6.72896 0.710938 0 7.4399 0 15.7109C0 23.982 6.72896 30.7109 15 30.7109C23.271 30.7109 30 23.982 30 15.7109C30 7.4399 23.271 0.710938 15 0.710938ZM15 28.9531C7.69822 28.9531 1.75781 23.0127 1.75781 15.7109C1.75781 8.40916 7.69822 2.46875 15 2.46875C22.3018 2.46875 28.2422 8.40916 28.2422 15.7109C28.2422 23.0127 22.3018 28.9531 15 28.9531Z" fill="white"/>
<path d="M15 16.5312C18.3924 16.5312 21.1523 13.7713 21.1523 10.3789C21.1523 6.9865 18.3924 4.22656 15 4.22656C11.6076 4.22656 8.84766 6.9865 8.84766 10.3789C8.84766 13.7713 11.6076 16.5312 15 16.5312ZM15 5.98438C17.4231 5.98438 19.3945 7.95576 19.3945 10.3789C19.3945 12.8021 17.4231 14.7734 15 14.7734C12.5769 14.7734 10.6055 12.8021 10.6055 10.3789C10.6055 7.95576 12.5769 5.98438 15 5.98438Z" fill="white"/>
<path d="M24.8818 20.3658C23.7138 19.046 22.0341 18.2891 20.2734 18.2891H9.72654C7.96586 18.2891 6.28615 19.046 5.1182 20.3658L4.7016 20.8366L5.0125 21.383C7.05256 24.9682 10.8795 27.1953 15 27.1953C19.1204 27.1953 22.9474 24.9682 24.9875 21.3829L25.2984 20.8365L24.8818 20.3658ZM15 25.4375C11.7342 25.4375 8.68586 23.7853 6.8916 21.0843C7.6798 20.4191 8.68334 20.0469 9.72654 20.0469H20.2734C21.3166 20.0469 22.3202 20.4191 23.1084 21.0843C21.3141 23.7853 18.2658 25.4375 15 25.4375Z" fill="white"/>
</g>
<defs>
<clipPath id="clip0">
<rect width="30" height="30" fill="white" transform="translate(0 0.710938)"/>
</clipPath>
</defs>
</svg>
